<svg width="32" height="32" viewBox="0 0 32 32" fill="none" xmlns="http://www.w3.org/2000/svg">
<path fill-rule="evenodd" clip-rule="evenodd" d="M18.8285 14.9775H22.5189C23.0785 14.9775 23.5182 14.5148 23.5182 13.9569C23.5182 13.3855 23.0785 12.9364 22.5189 12.9364H18.8285C18.2689 12.9364 17.8293 13.3855 17.8293 13.9569C17.8293 14.5148 18.2689 14.9775 18.8285 14.9775ZM26.9022 7.90328C27.7149 7.90328 28.2478 8.18903 28.7807 8.81494C29.3136 9.44085 29.4069 10.3389 29.287 11.1539L28.0213 20.08C27.7815 21.7958 26.3426 23.0599 24.6506 23.0599H10.1153C8.34331 23.0599 6.87779 21.6734 6.73124 19.8773L5.50553 5.0445L3.49376 4.69072C2.96084 4.59547 2.5878 4.06481 2.68106 3.52054C2.77432 2.96402 3.29392 2.59528 3.84016 2.67828L7.01768 3.16676C7.47066 3.24976 7.80373 3.62939 7.8437 4.09202L8.09684 7.13994C8.13681 7.57672 8.4832 7.90328 8.90954 7.90328H26.9022ZM9.90183 25.2104C8.7827 25.2104 7.87674 26.1357 7.87674 27.2787C7.87674 28.408 8.7827 29.3333 9.90183 29.3333C11.0076 29.3333 11.9136 28.408 11.9136 27.2787C11.9136 26.1357 11.0076 25.2104 9.90183 25.2104ZM24.8902 25.2104C23.771 25.2104 22.8651 26.1357 22.8651 27.2787C22.8651 28.408 23.771 29.3333 24.8902 29.3333C25.996 29.3333 26.9019 28.408 26.9019 27.2787C26.9019 26.1357 25.996 25.2104 24.8902 25.2104Z" fill="white"/>
</svg>
