<svg width="110" height="110" viewBox="0 0 110 110" fill="none" xmlns="http://www.w3.org/2000/svg">
<path d="M5.7606 81.197L13.4414 83.1172L11.5212 90.798H19.4763V98.2045L27.4314 97.3815L28.803 104.239L35.9352 101.222L38.9526 107.805L45.2618 104.788L49.9252 109.726L55.1372 105.885L60.3491 109.726L65.8354 104.239L71.3217 107.805L75.1621 101.222L80.3741 104.239L82.8429 97.3815L90.2494 98.2045V90.798H97.3815V83.1172L103.691 82.0199L100.948 74.0648L108.08 71.0474L103.691 64.7382L110 60.6234L104.788 54.5885L110 50.4738L103.691 45.2618L108.08 38.6783L100.948 36.2095L103.691 29.0773L96.2843 27.1571L97.3815 20.5736L90.2494 19.4763V11.5212L82.8429 13.4414L80.3741 6.03491L74.3392 8.50374L71.3217 1.9202L64.4638 6.03491L60.3491 0L55.1372 6.03491L49.9252 0L44.7132 6.03491L38.9526 1.09726L35.9352 8.50374L28.803 6.03491L26.6085 13.4414L19.4763 11.5212V19.4763H11.5212L13.4414 27.1571L5.7606 28.2544L7.95511 36.2095L1.9202 38.6783L5.7606 45.2618L0 49.1022L4.66334 54.5885L0 59.8005L4.66334 64.7382L1.9202 71.0474L7.95511 74.0648L5.7606 81.197Z" fill="#FF2626"/>
<path d="M32.4897 38.6279L36.8887 30.5391H42.4478L35.6157 42.1729L42.625 54H37.0015L32.4897 45.7822L27.978 54H22.3545L29.3638 42.1729L22.5317 30.5391H28.0908L32.4897 38.6279ZM59.1411 30.5391H63.9912V54H59.1411V38.4185L49.7471 54H44.9131V30.5391H49.7471V46.1528L59.1411 30.5391ZM85.3574 34.4546H78.1709V54H73.3369V34.4546H66.2471V30.5391H85.3574V34.4546Z" fill="white"/>
<path d="M23.2109 78H20.3633V67.6172H15.418V78H12.5703V65.3203H23.2109V78ZM37.3438 71.7891C37.3438 73.75 36.8984 75.3164 36.0078 76.4883C35.1172 77.6523 33.9219 78.2344 32.4219 78.2344C31.0312 78.2344 29.918 77.7773 29.082 76.8633V82.875H26.2344V65.3203H28.8594L28.9766 66.6094C29.8125 65.5938 30.9492 65.0859 32.3867 65.0859C33.9336 65.0859 35.1445 65.6641 36.0195 66.8203C36.9023 67.9688 37.3438 69.5664 37.3438 71.6133V71.7891ZM34.5078 71.543C34.5078 70.2773 34.2539 69.2734 33.7461 68.5312C33.2461 67.7891 32.5273 67.418 31.5898 67.418C30.4258 67.418 29.5898 67.8984 29.082 68.8594V74.4844C29.5977 75.4688 30.4414 75.9609 31.6133 75.9609C32.5195 75.9609 33.2266 75.5977 33.7344 74.8711C34.25 74.1367 34.5078 73.0273 34.5078 71.543ZM39.2305 71.543C39.2305 70.3008 39.4766 69.1836 39.9688 68.1914C40.4609 67.1914 41.1523 66.4258 42.043 65.8945C42.9336 65.3555 43.957 65.0859 45.1133 65.0859C46.8242 65.0859 48.2109 65.6367 49.2734 66.7383C50.3438 67.8398 50.9219 69.3008 51.0078 71.1211L51.0195 71.7891C51.0195 73.0391 50.7773 74.1562 50.293 75.1406C49.8164 76.125 49.1289 76.8867 48.2305 77.4258C47.3398 77.9648 46.3086 78.2344 45.1367 78.2344C43.3477 78.2344 41.9141 77.6406 40.8359 76.4531C39.7656 75.2578 39.2305 73.668 39.2305 71.6836V71.543ZM42.0781 71.7891C42.0781 73.0938 42.3477 74.1172 42.8867 74.8594C43.4258 75.5938 44.1758 75.9609 45.1367 75.9609C46.0977 75.9609 46.8438 75.5859 47.375 74.8359C47.9141 74.0859 48.1836 72.9883 48.1836 71.543C48.1836 70.2617 47.9062 69.2461 47.3516 68.4961C46.8047 67.7461 46.0586 67.3711 45.1133 67.3711C44.1836 67.3711 43.4453 67.7422 42.8984 68.4844C42.3516 69.2188 42.0781 70.3203 42.0781 71.7891ZM52.6367 75.7266C53.4258 74.8438 53.9531 74.0078 54.2188 73.2188C54.4922 72.4219 54.6562 71.4062 54.7109 70.1719L54.875 65.3203H63.6758V75.7266H65.4336V81.7734H62.5977V78H54.4648V81.7734H51.582L51.5938 75.7266H52.6367ZM55.9766 75.7266H60.8398V67.7695H57.6406L57.5586 70.1953C57.4492 72.5234 56.9219 74.3672 55.9766 75.7266ZM75.043 78C74.918 77.7578 74.8086 77.3633 74.7148 76.8164C73.8086 77.7617 72.6992 78.2344 71.3867 78.2344C70.1133 78.2344 69.0742 77.8711 68.2695 77.1445C67.4648 76.418 67.0625 75.5195 67.0625 74.4492C67.0625 73.0977 67.5625 72.0625 68.5625 71.3438C69.5703 70.6172 71.0078 70.2539 72.875 70.2539H74.6211V69.4219C74.6211 68.7656 74.4375 68.2422 74.0703 67.8516C73.7031 67.4531 73.1445 67.2539 72.3945 67.2539C71.7461 67.2539 71.2148 67.418 70.8008 67.7461C70.3867 68.0664 70.1797 68.4766 70.1797 68.9766H67.332C67.332 68.2812 67.5625 67.6328 68.0234 67.0312C68.4844 66.4219 69.1094 65.9453 69.8984 65.6016C70.6953 65.2578 71.582 65.0859 72.5586 65.0859C74.043 65.0859 75.2266 65.4609 76.1094 66.2109C76.9922 66.9531 77.4453 68 77.4688 69.3516V75.0703C77.4688 76.2109 77.6289 77.1211 77.9492 77.8008V78H75.043ZM71.9141 75.9492C72.4766 75.9492 73.0039 75.8125 73.4961 75.5391C73.9961 75.2656 74.3711 74.8984 74.6211 74.4375V72.0469H73.0859C72.0312 72.0469 71.2383 72.2305 70.707 72.5977C70.1758 72.9648 69.9102 73.4844 69.9102 74.1562C69.9102 74.7031 70.0898 75.1406 70.4492 75.4688C70.8164 75.7891 71.3047 75.9492 71.9141 75.9492ZM91.6133 72.9023H90.1016V78H87.2539V72.9023H85.7539L82.8359 78H79.3438L83.5508 71.4023L79.5664 65.3203H83.0469L85.918 70.3008H87.2539V65.3203H90.1016V70.3008H91.4492L94.332 65.3203H97.8125L93.8398 71.3672L98.0703 78H94.5312L91.6133 72.9023Z" fill="white"/>
</svg>
