<svg width="110" height="110" viewBox="0 0 110 110" fill="none" xmlns="http://www.w3.org/2000/svg">
<path d="M5.7606 81.197L13.4414 83.1172L11.5212 90.798H19.4763V98.2045L27.4314 97.3815L28.803 104.239L35.9352 101.222L38.9526 107.805L45.2618 104.788L49.9252 109.726L55.1372 105.885L60.3491 109.726L65.8354 104.239L71.3217 107.805L75.1621 101.222L80.3741 104.239L82.8429 97.3815L90.2494 98.2045V90.798H97.3815V83.1172L103.691 82.0199L100.948 74.0648L108.08 71.0474L103.691 64.7382L110 60.6234L104.788 54.5885L110 50.4738L103.691 45.2618L108.08 38.6783L100.948 36.2095L103.691 29.0773L96.2843 27.1571L97.3815 20.5736L90.2494 19.4763V11.5212L82.8429 13.4414L80.3741 6.03491L74.3392 8.50374L71.3217 1.9202L64.4638 6.03491L60.3491 0L55.1372 6.03491L49.9252 0L44.7132 6.03491L38.9526 1.09726L35.9352 8.50374L28.803 6.03491L26.6085 13.4414L19.4763 11.5212V19.4763H11.5212L13.4414 27.1571L5.7606 28.2544L7.95511 36.2095L1.9202 38.6783L5.7606 45.2618L0 49.1022L4.66334 54.5885L0 59.8005L4.66334 64.7382L1.9202 71.0474L7.95511 74.0648L5.7606 81.197Z" fill="#FF2626"/>
</svg>
