<svg width="313" height="79" viewBox="0 0 313 79" fill="none" xmlns="http://www.w3.org/2000/svg">
<path d="M139.416 32.904L136.584 30.552C134.328 34.104 131.544 35.928 128.232 35.928C124.056 35.928 120.264 32.184 120.264 23.016C120.264 15.192 123.768 10.056 128.136 10.056C132.168 10.056 133.992 12.984 135 18.504L138.408 17.832L138.264 6.552C137.352 7.032 136.344 7.56 135.384 7.56C133.656 7.56 131.592 6.216 127.512 6.216C119.592 6.216 112.776 13.8 112.776 23.112C112.776 33.816 119.496 39.768 127.8 39.768C132.216 39.768 136.536 37.56 139.416 32.904ZM176.115 23.112C176.115 12.264 168.531 6.216 160.659 6.216C152.787 6.216 145.203 12.312 145.203 23.112C145.203 33.528 152.787 39.768 160.659 39.768C168.483 39.768 176.115 33.576 176.115 23.112ZM168.291 23.016C168.291 31.56 165.363 35.928 160.659 35.928C155.955 35.928 153.027 31.56 153.027 23.016C153.027 14.472 155.955 10.056 160.659 10.056C165.363 10.056 168.291 14.472 168.291 23.016ZM214.375 36.12C210.679 35.4 210.631 34.536 209.287 32.04L207.415 28.632C205.351 24.888 205.159 24.312 202.423 23.064C207.703 22.104 210.391 19.512 210.391 15.144C210.391 13.368 209.527 11.352 208.087 9.912C205.447 7.176 201.943 6.984 197.287 6.984H183.751L182.887 9.864C187.063 10.248 186.775 10.92 186.775 14.712V31.272C186.775 34.776 187.159 35.88 182.743 36.12L183.655 39H196.951L197.815 36.12C193.351 35.784 193.735 34.92 193.735 31.272V10.248H197.239C201.079 10.248 202.903 12.072 202.903 15.336C202.903 20.088 199.975 20.952 195.655 20.952C195.367 20.952 194.695 20.904 194.407 20.904L195.415 24.12C196.903 24.216 197.335 24.456 198.487 26.232C200.551 29.448 202.519 33.864 205.207 39H213.463L214.375 36.12ZM246.242 15.384C246.242 13.56 245.186 11.304 243.65 9.816C240.962 7.224 237.314 6.984 232.85 6.984H219.698L218.786 9.864C222.962 10.248 222.626 10.92 222.626 14.712V31.272C222.626 34.968 223.01 35.784 218.786 36.12L219.698 39H233.234L234.194 36.12C229.25 35.784 229.586 35.064 229.586 31.272V10.248H232.802C237.026 10.248 238.754 12.456 238.754 15.576C238.754 19.56 236.642 21.768 232.658 21.768C231.89 21.768 230.93 21.672 230.21 21.576L231.458 24.888C232.322 24.936 233.426 24.984 234.434 24.984C241.922 24.984 246.242 21.432 246.242 15.384ZM282.585 9.864L281.721 6.984H272.025L271.161 9.864C275.337 10.248 275.001 10.968 275.001 14.712V27.192C275.001 29.592 275.049 31.56 273.801 33.288C272.601 35.016 270.393 35.928 268.281 35.928C265.209 35.928 263.049 34.344 262.425 31.704C262.185 30.696 262.137 29.016 262.137 27.048V14.712C262.137 10.92 261.849 10.248 265.977 9.864L265.065 6.984H252.009L251.097 9.864C255.273 10.248 254.937 10.968 254.937 14.712V27.096C254.937 30.648 254.745 33.192 256.665 35.64C258.729 38.28 262.377 39.768 266.937 39.768C270.489 39.768 273.225 39 275.481 37.032C278.457 34.392 278.793 31.272 278.793 27.144V14.712C278.793 10.92 278.409 10.248 282.585 9.864ZM311.256 29.592C311.256 18.744 295.176 19.8 295.176 13.656C295.176 11.208 296.904 9.768 299.736 9.768C303.288 9.768 305.112 12.168 305.928 16.872L309.576 16.152L309.192 6.504C308.568 6.84 307.752 7.224 306.696 7.224C305.4 7.224 303.336 6.168 299.832 6.168C293.256 6.168 289.032 10.584 289.032 15.336C289.032 26.04 304.872 24.36 304.872 31.464C304.872 34.2 303.048 36.168 299.4 36.168C295.224 36.168 293.016 33 292.008 26.952L288.216 27.96L288.696 39.192C289.704 38.712 290.808 38.28 291.72 38.28C293.112 38.28 296.184 39.768 299.448 39.768C306.552 39.768 311.256 35.208 311.256 29.592Z" fill="#D8B470"/>
<path d="M136.32 71.0098C136.467 72.1289 136.83 72.9521 137.41 73.4795C137.99 74.001 138.834 74.2617 139.941 74.2617C141.096 74.2617 142.007 73.8164 142.675 72.9258C143.343 72.0352 143.677 70.8428 143.677 69.3486V69.0322H138.333V68.1094H143.677V67.793C143.677 66.3105 143.334 65.1328 142.648 64.2598C141.963 63.3867 141.037 62.9502 139.871 62.9502C137.773 62.9502 136.59 64.0371 136.32 66.2109H135.239C135.368 64.8867 135.834 63.8584 136.637 63.126C137.439 62.3936 138.518 62.0273 139.871 62.0273C141.342 62.0273 142.522 62.5547 143.413 63.6094C144.31 64.6582 144.758 66.082 144.758 67.8809V69.4102C144.758 70.5469 144.556 71.5576 144.151 72.4424C143.753 73.3213 143.188 73.998 142.455 74.4727C141.729 74.9414 140.891 75.1758 139.941 75.1758C138.57 75.1758 137.478 74.8154 136.663 74.0947C135.849 73.374 135.374 72.3457 135.239 71.0098H136.32ZM148.933 62.2031L153.652 73.4971L158.39 62.2031H159.831V75H158.75V69.4277L158.838 63.7148L154.074 75H153.239L148.493 63.7588L148.581 69.3926V75H147.5V62.2031H148.933ZM170.141 68.8652H164.155V74.0859H171.037V75H163.074V62.2031H170.993V63.126H164.155V67.9512H170.141V68.8652ZM174.403 69.7881V75H173.322V62.2031H177.682C179.012 62.2031 180.061 62.543 180.828 63.2227C181.602 63.9023 181.988 64.8369 181.988 66.0264C181.988 67.2275 181.616 68.1562 180.872 68.8125C180.134 69.4629 179.062 69.7881 177.655 69.7881H174.403ZM174.403 68.874H177.682C178.73 68.874 179.53 68.625 180.081 68.127C180.632 67.6289 180.907 66.9346 180.907 66.0439C180.907 65.1592 180.632 64.4561 180.081 63.9346C179.536 63.4072 178.76 63.1377 177.752 63.126H174.403V68.874ZM191.48 68.8652H185.495V74.0859H192.377V75H184.414V62.2031H192.333V63.126H185.495V67.9512H191.48V68.8652ZM197.545 68.9971H195.787V75H194.706V62.2031H195.787V68.0742H197.492L202.44 62.2031H203.803L198.547 68.4961L204.189 75H202.845L197.545 68.9971ZM218.19 63.126H211.563V67.7578H214.736C215.609 67.7578 216.365 67.9043 217.004 68.1973C217.643 68.4844 218.129 68.9004 218.463 69.4453C218.803 69.9844 218.973 70.623 218.973 71.3613C218.973 72.4922 218.595 73.3828 217.839 74.0332C217.083 74.6777 216.037 75 214.701 75H210.474V62.2031H218.19V63.126ZM211.563 68.6807V74.0859H214.728C215.718 74.0859 216.491 73.8428 217.048 73.3564C217.604 72.8643 217.883 72.1934 217.883 71.3438C217.883 70.5352 217.613 69.8936 217.074 69.4189C216.535 68.9385 215.779 68.6924 214.807 68.6807H211.563ZM231.295 69.2959C231.295 70.4736 231.09 71.5078 230.68 72.3984C230.275 73.2891 229.695 73.9746 228.939 74.4551C228.184 74.9355 227.311 75.1758 226.32 75.1758C224.826 75.1758 223.619 74.6426 222.699 73.5762C221.779 72.5039 221.319 71.0596 221.319 69.2432V67.9248C221.319 66.7588 221.524 65.7275 221.935 64.8311C222.351 63.9287 222.937 63.2373 223.692 62.7568C224.448 62.2705 225.318 62.0273 226.303 62.0273C227.287 62.0273 228.154 62.2646 228.904 62.7393C229.66 63.2139 230.243 63.8848 230.653 64.752C231.063 65.6191 231.277 66.624 231.295 67.7666V69.2959ZM230.214 67.9072C230.214 66.3662 229.865 65.1592 229.168 64.2861C228.471 63.4131 227.516 62.9766 226.303 62.9766C225.113 62.9766 224.164 63.416 223.455 64.2949C222.752 65.168 222.4 66.3896 222.4 67.96V69.2959C222.4 70.8135 222.752 72.0176 223.455 72.9082C224.158 73.793 225.113 74.2354 226.32 74.2354C227.545 74.2354 228.5 73.7988 229.186 72.9258C229.871 72.0469 230.214 70.8252 230.214 69.2607V67.9072ZM235.101 69.7881V75H234.02V62.2031H238.379C239.709 62.2031 240.758 62.543 241.525 63.2227C242.299 63.9023 242.686 64.8369 242.686 66.0264C242.686 67.2275 242.313 68.1562 241.569 68.8125C240.831 69.4629 239.759 69.7881 238.353 69.7881H235.101ZM235.101 68.874H238.379C239.428 68.874 240.228 68.625 240.778 68.127C241.329 67.6289 241.604 66.9346 241.604 66.0439C241.604 65.1592 241.329 64.4561 240.778 63.9346C240.233 63.4072 239.457 63.1377 238.449 63.126H235.101V68.874ZM252.767 63.126H246.14V67.7578H249.312C250.186 67.7578 250.941 67.9043 251.58 68.1973C252.219 68.4844 252.705 68.9004 253.039 69.4453C253.379 69.9844 253.549 70.623 253.549 71.3613C253.549 72.4922 253.171 73.3828 252.415 74.0332C251.659 74.6777 250.613 75 249.277 75H245.05V62.2031H252.767V63.126ZM246.14 68.6807V74.0859H249.304C250.294 74.0859 251.067 73.8428 251.624 73.3564C252.181 72.8643 252.459 72.1934 252.459 71.3438C252.459 70.5352 252.189 69.8936 251.65 69.4189C251.111 68.9385 250.355 68.6924 249.383 68.6807H246.14ZM265.871 69.2959C265.871 70.4736 265.666 71.5078 265.256 72.3984C264.852 73.2891 264.271 73.9746 263.516 74.4551C262.76 74.9355 261.887 75.1758 260.896 75.1758C259.402 75.1758 258.195 74.6426 257.275 73.5762C256.355 72.5039 255.896 71.0596 255.896 69.2432V67.9248C255.896 66.7588 256.101 65.7275 256.511 64.8311C256.927 63.9287 257.513 63.2373 258.269 62.7568C259.024 62.2705 259.895 62.0273 260.879 62.0273C261.863 62.0273 262.73 62.2646 263.48 62.7393C264.236 63.2139 264.819 63.8848 265.229 64.752C265.64 65.6191 265.854 66.624 265.871 67.7666V69.2959ZM264.79 67.9072C264.79 66.3662 264.441 65.1592 263.744 64.2861C263.047 63.4131 262.092 62.9766 260.879 62.9766C259.689 62.9766 258.74 63.416 258.031 64.2949C257.328 65.168 256.977 66.3896 256.977 67.96V69.2959C256.977 70.8135 257.328 72.0176 258.031 72.9082C258.734 73.793 259.689 74.2354 260.896 74.2354C262.121 74.2354 263.076 73.7988 263.762 72.9258C264.447 72.0469 264.79 70.8252 264.79 69.2607V67.9072ZM269.677 69.7881V75H268.596V62.2031H272.955C274.285 62.2031 275.334 62.543 276.102 63.2227C276.875 63.9023 277.262 64.8369 277.262 66.0264C277.262 67.2275 276.89 68.1562 276.146 68.8125C275.407 69.4629 274.335 69.7881 272.929 69.7881H269.677ZM269.677 68.874H272.955C274.004 68.874 274.804 68.625 275.354 68.127C275.905 67.6289 276.181 66.9346 276.181 66.0439C276.181 65.1592 275.905 64.4561 275.354 63.9346C274.81 63.4072 274.033 63.1377 273.025 63.126H269.677V68.874ZM283.959 70.4033L287.598 62.2031H288.872L283.924 72.917L283.607 73.5234C282.986 74.6309 282.072 75.1846 280.865 75.1846C280.508 75.1846 280.232 75.1523 280.039 75.0879L280.136 74.209C280.259 74.25 280.505 74.2705 280.874 74.2705C281.601 74.2705 282.184 73.8984 282.623 73.1543L282.843 72.7588L283.396 71.6162L278.554 62.2031H279.793L283.959 70.4033Z" fill="#D8B470"/>
<path d="M43.4979 4.47561C37.0677 4.44344 31.2969 4.49059 29.22 4.70544C27.3934 4.8944 26.2167 5.96871 25.4634 7.31696C24.7009 8.68171 24.4085 10.2767 24.3788 11.3183V34.9537H22.9124V11.2982L22.9127 11.2883C22.9456 10.069 23.2771 8.22357 24.1833 6.60171C25.101 4.95911 26.6432 3.49778 29.0692 3.24683C31.2448 3.02176 37.1135 2.97726 43.5052 3.00924C49.9208 3.04134 56.9268 3.15138 61.4203 3.24309L61.3903 4.70918C56.9021 4.61758 49.904 4.50767 43.4979 4.47561Z" fill="#DAB46D"/>
<path d="M45.7689 39.7699C52.1991 39.8021 57.9699 39.755 60.0468 39.5401C61.8734 39.3512 63.0501 38.2768 63.8034 36.9286C64.5659 35.5638 64.8583 33.9689 64.888 32.9273V9.29182H66.3544V32.9474L66.3541 32.9573C66.3212 34.1766 65.9897 36.022 65.0835 37.6438C64.1658 39.2864 62.6236 40.7478 60.1976 40.9987C58.022 41.2238 52.1533 41.2683 45.7616 41.2363C39.346 41.2042 32.34 41.0942 27.8465 41.0025L27.8765 39.5364C32.3647 39.628 39.3628 39.7379 45.7689 39.7699Z" fill="#DAB46D"/>
<path d="M0 25.6055V78.0291H1.4664V25.6055H0Z" fill="#DAB46D"/>
<path d="M83.7296 18.6667C86.5834 19.3001 88.7507 21.4449 89.8821 23.1904L90 23.3723V78.9456H7.14868V77.4792H88.5336V23.8107C87.5013 22.2987 85.672 20.5999 83.4119 20.0982C81.184 19.6037 78.3291 20.2301 75.1527 23.8618V63.1818H73.6863V23.3192L73.8614 23.1137C77.3603 19.0063 80.7957 18.0154 83.7296 18.6667Z" fill="#DAB46D"/>
<path d="M15.9466 23.3796C15.9116 22.3997 15.5918 20.874 14.135 19.7158C12.6947 18.5707 10.2865 17.9015 6.34596 18.2768L6.48499 19.7366C10.243 19.3787 12.2035 20.0536 13.2224 20.8637C14.2191 21.656 14.4524 22.6892 14.4807 23.4194V65.7479H65.0713V64.2815H15.947V23.3927L15.9466 23.3796Z" fill="#DAB46D"/>
</svg>
