<svg width="35" height="35" viewBox="0 0 35 35" fill="none" xmlns="http://www.w3.org/2000/svg">
<rect width="35" height="35" rx="10" fill="url(#paint0_linear)"/>
<path fill-rule="evenodd" clip-rule="evenodd" d="M7.92149 17.3153C13.0231 15.0926 16.425 13.6273 18.1271 12.9193C22.987 10.8979 23.9969 10.5467 24.6551 10.5351C24.7999 10.5326 25.1236 10.5685 25.3332 10.7386C25.5103 10.8822 25.559 11.0763 25.5823 11.2125C25.6056 11.3487 25.6346 11.659 25.6115 11.9014C25.3482 14.6686 24.2086 21.3838 23.6289 24.483C23.3836 25.7945 22.9005 26.2342 22.4329 26.2772C21.4167 26.3707 20.645 25.6056 19.6607 24.9604C18.1204 23.9507 17.2503 23.3222 15.7552 22.337C14.0274 21.1984 15.1475 20.5726 16.1322 19.5499C16.3899 19.2823 20.8675 15.2095 20.9542 14.84C20.965 14.7938 20.9751 14.6216 20.8728 14.5306C20.7704 14.4397 20.6194 14.4708 20.5104 14.4955C20.356 14.5306 17.8954 16.1569 13.1288 19.3745C12.4304 19.8541 11.7978 20.0877 11.231 20.0755C10.6062 20.062 9.40424 19.7222 8.51072 19.4317C7.41478 19.0755 6.54375 18.8871 6.61959 18.2821C6.6591 17.967 7.09306 17.6447 7.92149 17.3153Z" fill="white"/>
<defs>
<linearGradient id="paint0_linear" x1="17.5" y1="0" x2="17.5" y2="35" gradientUnits="userSpaceOnUse">
<stop stop-color="#2AABEE"/>
<stop offset="1" stop-color="#229ED9"/>
</linearGradient>
</defs>
</svg>
