<svg width="90" height="76" viewBox="0 0 90 76" fill="none" xmlns="http://www.w3.org/2000/svg">
<path d="M43.4979 1.47561C37.0677 1.44344 31.2969 1.49059 29.22 1.70544C27.3934 1.8944 26.2167 2.96871 25.4634 4.31696C24.7009 5.68171 24.4085 7.27668 24.3788 8.31828V31.9537H22.9124V8.2982L22.9127 8.2883C22.9456 7.06898 23.2771 5.22357 24.1833 3.60171C25.101 1.95911 26.6432 0.497785 29.0692 0.246827C31.2448 0.021758 37.1135 -0.0227434 43.5052 0.00923782C49.9208 0.041339 56.9268 0.151385 61.4203 0.243088L61.3903 1.70918C56.9021 1.61758 49.904 1.50767 43.4979 1.47561Z" fill="#DAB46D"/>
<path d="M45.7689 36.7699C52.1991 36.8021 57.9699 36.755 60.0468 36.5401C61.8734 36.3512 63.0501 35.2768 63.8034 33.9286C64.5659 32.5638 64.8583 30.9689 64.888 29.9273V6.29182H66.3544V29.9474L66.3541 29.9573C66.3212 31.1766 65.9897 33.022 65.0835 34.6438C64.1658 36.2864 62.6236 37.7478 60.1976 37.9987C58.022 38.2238 52.1533 38.2683 45.7616 38.2363C39.346 38.2042 32.34 38.0942 27.8465 38.0025L27.8765 36.5364C32.3647 36.628 39.3628 36.7379 45.7689 36.7699Z" fill="#DAB46D"/>
<path d="M0 22.6055V75.0291H1.4664V22.6055H0Z" fill="#DAB46D"/>
<path d="M83.7296 15.6667C86.5834 16.3001 88.7507 18.4449 89.8821 20.1904L90 20.3723V75.9456H7.14868V74.4792H88.5336V20.8107C87.5013 19.2987 85.672 17.5999 83.4119 17.0982C81.184 16.6037 78.3291 17.2301 75.1527 20.8618V60.1818H73.6863V20.3192L73.8614 20.1137C77.3603 16.0063 80.7957 15.0154 83.7296 15.6667Z" fill="#DAB46D"/>
<path d="M15.9466 20.3796C15.9116 19.3997 15.5918 17.874 14.135 16.7158C12.6947 15.5707 10.2865 14.9015 6.34596 15.2768L6.48499 16.7366C10.243 16.3787 12.2035 17.0536 13.2224 17.8637C14.2191 18.656 14.4524 19.6892 14.4807 20.4194V62.7479H65.0713V61.2815H15.947V20.3927L15.9466 20.3796Z" fill="#DAB46D"/>
</svg>
