<svg width="36" height="42" viewBox="0 0 36 42" fill="none" xmlns="http://www.w3.org/2000/svg">
<circle cx="18" cy="18" r="18" fill="#EBEBEB"/>
<path d="M7.77131 36.5973C6.31027 37.3307 4.63419 36.0967 4.90076 34.4837L5.37493 31.6148C5.6184 30.1417 7.33164 29.4451 8.53398 30.3303L10.6586 31.8947C11.8609 32.7799 11.7045 34.6227 10.3701 35.2926L7.77131 36.5973Z" fill="#EBEBEB"/>
<circle cx="17.9998" cy="17.9998" r="16.1675" fill="#00B934"/>
<path d="M6.3054 35.6403L7.78453 26.6908L14.4121 31.5706L6.3054 35.6403Z" fill="#00B934"/>
<path d="M16.8339 19.6075C14.8179 18.0229 12.85 16.1434 13.577 15.22C14.6198 13.8994 15.5593 13.05 13.1598 10.6943C10.7603 8.33865 9.60233 10.504 8.59453 11.7827C7.43167 13.2583 9.2646 18.0275 14.7014 22.3143C20.1382 26.601 25.2042 27.2661 26.3685 25.7904C27.3737 24.5089 29.2058 22.881 26.3591 21.098C23.5123 19.3151 22.9047 20.4288 21.8649 21.7483C21.1332 22.6714 18.8466 21.1972 16.8339 19.6075Z" fill="white"/>
</svg>
