<svg width="26" height="30" viewBox="0 0 26 30" fill="none" xmlns="http://www.w3.org/2000/svg">
<circle cx="13" cy="13" r="13" fill="#EBEBEB"/>
<path d="M9.58798 25.9417C8.12694 26.6751 6.45086 25.4411 6.71744 23.8281L6.73417 23.7269C6.97763 22.2538 8.69088 21.5572 9.89321 22.4425L9.96818 22.4977C11.1705 23.3829 11.014 25.2258 9.67967 25.8956L9.58798 25.9417Z" fill="#EBEBEB"/>
<circle cx="12.9998" cy="12.9998" r="11.6765" fill="#00B934"/>
<path d="M4.55385 25.7406L5.6221 19.2771L10.4087 22.8014L4.55385 25.7406Z" fill="#00B934"/>
<path d="M12.1578 14.161C10.7018 13.0165 9.28058 11.6592 9.80566 10.9923C10.5588 10.0385 11.2374 9.42506 9.50437 7.72373C7.77139 6.02239 6.93507 7.58623 6.20721 8.5098C5.36737 9.57545 6.69116 13.0199 10.6177 16.1159C14.5443 19.2119 18.2031 19.6922 19.044 18.6265C19.77 17.7009 21.0931 16.5252 19.0372 15.2375C16.9812 13.9498 16.5424 14.7542 15.7913 15.7071C15.2629 16.3738 13.6115 15.3091 12.1578 14.161Z" fill="white"/>
</svg>
